# xmcd CD database file
#
# Track frame offsets:
#	150
#	1788
#	19715
#	31935
#	48065
#	68073
#	84570
#	101230
#	119805
#	141355
#	156938
#	170028
#	186880
#	209448
#	222518
#	234715
#	239990
#
# Disc length: 3406 seconds
#
# Revision: 0
# Processed by: cddbd v1.5.1PL0 Copyright (c) Steve Scherf et al.
# Submitted via: CDex 1.51
#
DISCID=fb0d4c11
DTITLE=Black Bottom Brass Band - ワッショイスター
DYEAR=2004
DGENRE=Pop
TTITLE0=Let's パーレー!
TTITLE1=ホッチリホーンズ
TTITLE2=ワッショイブギ
TTITLE3=理由はいらない
TTITLE4=波打際のサリー
TTITLE5=パラダイス因果
TTITLE6=Can't stop lovin' you
TTITLE7=MY CHERIE AMOUR
TTITLE8=BBセカンドライン
TTITLE9=また夏が来た
TTITLE10=麗しのシェフチンコ
TTITLE11=涙のパレード
TTITLE12=東京の恋人'04
TTITLE13=Go To The Bayou!!
TTITLE14=最強無敵のブラスバンド
TTITLE15=ぐでんぐでん
TTITLE16=Be free!!
EXTD=YEAR: 2004
EXTT0=
EXTT1=
EXTT2=
EXTT3=
EXTT4=
EXTT5=
EXTT6=
EXTT7=
EXTT8=
EXTT9=
EXTT10=
EXTT11=
EXTT12=
EXTT13=
EXTT14=
EXTT15=
EXTT16=
PLAYORDER=
